<svg width="206" height="34" viewBox="0 0 206 34" fill="none" xmlns="http://www.w3.org/2000/svg">
<path fill-rule="evenodd" clip-rule="evenodd" d="M16.7513 30.6751C9.55285 30.6751 3.40853 24.1682 3.40853 17.0708C3.40853 9.99975 9.42425 3.36359 16.6996 3.36359C21.4821 3.36359 24.9257 5.66948 27.7286 9.28224H31.2503C30.1962 7.38604 29.0652 5.64428 27.3428 4.28594C24.3861 1.90336 20.5555 0.494629 16.7513 0.494629C7.62492 0.494629 0.195679 8.00167 0.195679 17.0456C0.195679 26.1148 7.72824 33.5451 16.8029 33.5451C20.5049 33.5451 24.1299 32.1879 27.035 29.9072C28.8607 28.4469 30.1457 26.5507 31.38 24.603H27.8583C25.0807 28.2158 21.5337 30.6751 16.7513 30.6751ZM53.2567 13.3814C51.0462 10.5376 48.0378 8.74438 44.3106 8.74438C37.6266 8.74438 32.1253 14.1515 32.1253 20.8128C32.1253 27.4731 37.6529 32.9306 44.3106 32.9306C48.1928 32.9306 50.8913 31.3159 53.2567 28.344V32.3916H56.1617V9.30743H53.2567V13.3814ZM44.1567 30.2654C39.0401 30.2654 35.004 25.8332 35.004 20.838C35.004 15.8669 39.0148 11.4096 44.1567 11.4096C49.2722 11.4096 53.2567 15.868 53.2567 20.838C53.2567 25.8332 49.2458 30.2654 44.1567 30.2654ZM59.6835 32.3916H62.7952V1.15956H59.6835V32.3916ZM74.543 28.7274L66.6763 9.30743H63.591L73.0262 32.3916H76.1621L85.572 9.30743H82.5384L74.543 28.7274ZM86.857 32.3916H89.9676V9.30743H86.857V32.3916ZM86.857 6.33551H89.9676V1.15956H86.857V6.33551ZM103.362 8.74328C100.431 8.74328 98.3487 10.2813 96.4208 12.3308V9.30743H93.541V32.3916H96.5999V18.3251C96.5747 14.6105 99.6589 11.4085 103.413 11.4085C108.116 11.4085 110.481 15.4824 110.481 19.6845V32.3927H113.36V19.6845C113.361 13.6892 109.84 8.74328 103.362 8.74328ZM142.232 1.15956L128.092 19.0689V1.15956H125.033V32.3916H128.092V23.8088L132.103 18.8388L142.309 32.3916H146.192L134.056 16.3785L146.192 1.15956H142.232ZM147.322 32.3916H150.357V1.15956H147.322V32.3916ZM175.473 15.1231C173.364 11.2025 169.148 8.74328 164.7 8.74328C158.068 8.74328 152.463 14.2522 152.463 20.8621C152.463 27.5224 158.119 32.9295 164.754 32.9295C167.914 32.9295 171.026 31.6741 173.313 29.4964C174.702 28.1895 175.524 26.5496 176.268 24.8331H173.005C171.358 28.0362 168.453 30.2643 164.699 30.2643C162.412 30.2643 160.176 29.3419 158.48 27.7787C156.73 26.1914 155.959 24.2426 155.624 21.9378H176.989C176.99 19.5301 176.655 17.2242 175.473 15.1231ZM155.728 19.2737C156.656 14.9446 160.073 11.4085 164.754 11.4085C168.686 11.4085 172.903 13.8174 173.828 19.2737H155.728ZM179.253 32.3916H182.31V9.30743H179.253V32.3916ZM179.253 6.43848H182.31V1.15956H179.253V6.43848ZM195.758 8.74328C192.773 8.74328 190.692 10.2813 188.737 12.3308V9.30743H185.807V32.3916H188.892V18.3251C188.867 14.5853 192.029 11.4085 195.807 11.4085C200.487 11.4085 202.956 15.4824 202.956 19.6845V32.3927H205.835V19.6845C205.835 13.6892 202.26 8.74328 195.758 8.74328Z" fill="white"/>
</svg>
