<svg width="166" height="34" viewBox="0 0 166 34" fill="none" xmlns="http://www.w3.org/2000/svg">
<path fill-rule="evenodd" clip-rule="evenodd" d="M149.789 1.14443H166.001V3.71896C165.53 3.56137 165.037 3.48014 164.541 3.47837H155.221V15.5086H164.287C164.939 15.5086 165.518 15.4373 166 15.316V17.8792C165.59 17.7832 165.024 17.7346 164.323 17.7346H155.221V30.174H164.262C164.758 30.174 165.349 30.102 166 29.9454V32.7125H149.813C149.942 32.2259 150.007 31.7245 150.007 31.221V2.67193C150.007 2.04682 149.934 1.52966 149.789 1.14443ZM146.036 9.33719L141.352 9.30191C141.123 6.67871 139.614 4.13946 136.295 3.67168C129.184 3.03387 127.18 10.8167 127.361 16.5076C127.543 21.9932 128.423 30.4265 135.763 30.4265C138.842 30.4265 141.799 27.2742 141.702 24.6157L146.036 24.5804C145.722 30.066 139.409 33.2417 136.403 33.3503C126.131 33.6996 121.832 26.8777 121.615 17.144C121.423 8.32756 125.044 0.494629 135.196 0.494629C143.887 0.615277 145.565 5.74033 146.036 9.33719ZM72.9799 29.1269L76.0828 26.5404C77.6998 29.1996 79.0279 30.4138 82.2391 30.4138C85.4977 30.4138 88.2389 28.4412 88.2389 24.953C88.2389 23.2321 87.538 21.8246 86.1505 20.7663C85.5218 20.2724 83.9289 19.4187 81.4179 18.2277C77.6637 16.4356 74.0064 14.101 74.0064 9.40986C74.0064 3.49036 79.0519 0.879855 84.3749 0.686536C87.526 0.566594 91.4374 2.30011 93.0182 4.24811L89.8679 6.66601C89.306 5.62102 88.4706 4.74716 87.4505 4.13723C86.4305 3.5273 85.2637 3.20404 84.0741 3.20179C80.0537 3.20179 76.8672 7.84567 80.1988 11.046C81.0434 11.8637 82.7708 12.8741 85.4022 14.077C89.6024 16.0384 93.1874 18.3837 93.1874 23.5694C93.1874 25.3615 92.7166 27.0336 91.7871 28.5618C89.9167 31.6415 86.7897 33.1817 82.4203 33.1817C77.3982 33.1817 76.4092 32.0387 72.9799 29.1269ZM28.7754 1.14443H44.9738V3.71896C44.5033 3.56143 44.0104 3.4802 43.514 3.47837H34.1954V15.5086H43.2606C43.9126 15.5086 44.4924 15.4373 44.9745 15.316V17.8792C44.5639 17.7832 43.9968 17.7346 43.3094 17.7346H34.1954V30.174H43.2365C43.7314 30.174 44.3232 30.102 44.9745 29.9454V32.7125H28.8002C28.9184 32.224 28.979 31.7235 28.9807 31.221V2.67193C28.9807 2.04682 28.9078 1.52966 28.7754 1.14443ZM0.444336 1.14443H6.33511V1.43371C6.33511 1.69828 6.41935 2.04682 6.56448 2.49202L14.8686 27.4068L23.3915 2.38337C23.5239 1.96286 23.5968 1.55365 23.5968 1.14443H26.4576C26.1681 1.6496 25.9507 2.0955 25.8176 2.49202L16.0877 31.4256C15.9914 31.7022 15.9072 32.1354 15.835 32.7132H11.0061C10.9331 32.2758 10.8242 31.8452 10.6804 31.4256L1.14449 2.72061C0.92421 2.19122 0.694565 1.66574 0.455663 1.14443H0.444336ZM63.0093 17.6026C66.8718 16.8442 69.8296 13.8971 69.8296 9.68643C69.8296 4.16345 65.194 1.14373 60.0034 1.14373H50.5156C50.6479 1.62561 50.7209 2.13078 50.7209 2.65994V31.1956C50.7209 31.8094 50.6479 32.3266 50.5156 32.7118H56.1649C56.0268 32.2182 55.9577 31.708 55.9596 31.1956V18.0838L57.7698 18.2764L67.2343 32.7118H72.9198L63.0093 17.6026ZM62.0316 15.1967C61.0058 15.9178 59.774 16.2783 58.3617 16.2783H55.9476V3.44379H58.1082C59.9559 3.44379 61.3916 3.90028 62.4182 4.81396C63.8185 6.07829 64.5307 7.78641 64.5307 9.92773C64.5307 12.2377 63.6974 13.9945 62.0316 15.1974M120.674 31.4016L110.124 2.19146C110.007 1.85373 109.938 1.50129 109.919 1.14443H105.355C105.355 1.51767 105.295 1.91418 105.149 2.3114L94.9261 31.4016C94.7923 31.8214 94.5757 32.2553 94.2861 32.7125H97.2311C97.2198 32.2313 97.28 31.7861 97.4131 31.4016L100.442 22.8229H112.091L115.085 31.4023C115.242 31.8701 115.314 32.3033 115.314 32.7125H121.423C121.072 32.2193 120.819 31.7741 120.674 31.4016ZM101.239 20.501L106.164 6.2455L111.222 20.501H101.239Z" fill="white"/>
</svg>
