<svg width="100" height="46" viewBox="0 0 100 46" fill="none" xmlns="http://www.w3.org/2000/svg">
<g clip-path="url(#clip0_14_48)" filter="url(#filter0_d_14_48)">
<path d="M90.8141 36.8682L77.3318 0.0321946L77.3226 0.0078125H77.0566L74.2802 7.57747L69.2258 21.3582L69.214 21.3473C67.4622 19.8134 64.9908 18.8546 61.8782 18.4975L60.9289 18.4002L61.8707 18.2804C67.0036 17.3651 70.454 14.1481 70.454 10.2722C70.454 4.95729 65.4165 1.24751 58.2006 1.24751H43.1869V1.51661H47.5494V28.9799L36.9544 0.0321043L36.9448 0.0078125H36.6788L33.9024 7.57747L23.194 36.7734L23.1281 36.7809C22.9451 36.8033 22.7641 36.8211 22.585 36.8346C22.3157 36.8555 22.0479 36.8681 21.7792 36.8681H10.9593L31.5265 1.51652L31.6794 1.25085H6.52491V12.1867H6.79182C6.83914 6.86 9.96517 1.51652 16.8719 1.51652H25.2043L4.48169 37.1329H32.399V26.6557H32.1321C32.0957 31.2984 29.4436 35.7081 23.6764 36.7038L23.493 36.7349L27.8853 24.7547H40.1892L44.6227 36.8682H40.2492V37.133H57.415V36.8682H53.0228V18.5956H58.0908C63.2482 18.5956 66.2062 20.8821 66.2062 24.8668V28.1081C66.2062 28.4653 66.2306 28.9874 66.2577 29.4241V29.44L63.5337 36.8665H59.9751V37.1313H67.3413V36.8665H63.821L66.3016 30.1039C66.3067 30.1693 66.3093 30.2087 66.3093 30.2087L66.3777 30.8181L66.4436 31.2212C66.8575 33.7148 67.8186 35.5479 69.2993 36.6694L69.5122 36.8228C70.6372 37.599 72.0352 37.9921 73.6695 37.9921C75.8344 37.9921 77.2779 37.4565 78.4697 36.1959L78.3134 36.05C77.2153 37.0558 76.2939 37.4633 75.1393 37.4633C73.172 37.4633 72.1425 35.0953 72.1425 32.7601V28.2188C72.1529 27.0919 71.9751 25.9712 71.6162 24.9021L71.5673 24.7613V24.7562H80.5668L85.0003 36.8698H80.6268V37.1347H95.4817V36.8698L90.8141 36.8682ZM27.9832 24.4897L34.0444 7.96479L40.0921 24.4897H27.9832ZM53.0255 18.3298V1.51652H56.8939C62.0615 1.51652 64.7897 4.56501 64.7897 10.3293C64.7897 16.4598 63.2236 18.3298 58.0908 18.3298H53.0255ZM71.4624 24.4897L71.4362 24.4244C71.0363 23.4577 70.454 22.5758 69.7207 21.8259L69.4673 21.5744L69.4403 21.5493L74.4186 7.96479L80.4663 24.4897H71.4624Z" fill="white"/>
</g>
<defs>
<filter id="filter0_d_14_48" x="0.481689" y="0" width="99" height="46" filterUnits="userSpaceOnUse" color-interpolation-filters="sRGB">
<feFlood flood-opacity="0" result="BackgroundImageFix"/>
<feColorMatrix in="SourceAlpha" type="matrix" values="0 0 0 0 0 0 0 0 0 0 0 0 0 0 0 0 0 0 127 0" result="hardAlpha"/>
<feOffset dy="4"/>
<feGaussianBlur stdDeviation="2"/>
<feComposite in2="hardAlpha" operator="out"/>
<feColorMatrix type="matrix" values="0 0 0 0 0 0 0 0 0 0 0 0 0 0 0 0 0 0 0.25 0"/>
<feBlend mode="normal" in2="BackgroundImageFix" result="effect1_dropShadow_14_48"/>
<feBlend mode="normal" in="SourceGraphic" in2="effect1_dropShadow_14_48" result="shape"/>
</filter>
<clipPath id="clip0_14_48">
<rect width="91" height="38" fill="white" transform="translate(4.48169)"/>
</clipPath>
</defs>
</svg>
